<?xml version="1.0" encoding="utf-8" ?>
<svg baseProfile="full" height="1600" version="1.1" width="1200" xmlns="http://www.w3.org/2000/svg" xmlns:ev="http://www.w3.org/2001/xml-events" xmlns:xlink="http://www.w3.org/1999/xlink"><defs><linearGradient id="bg_grad" x1="0" x2="0" y1="0" y2="1"><stop offset="0" stop-color="#f8f9fa" stop-opacity="1" /><stop offset="1" stop-color="#e3f2fd" stop-opacity="1" /></linearGradient><linearGradient id="glass_grad" x1="0" x2="1" y1="0" y2="1"><stop offset="0" stop-color="#ffffff" stop-opacity="0.9" /><stop offset="1" stop-color="#e1f5fe" stop-opacity="0.7" /></linearGradient><radialGradient cx="0.5" cy="0.5" id="blue_glow" r="0.5"><stop offset="0" stop-color="#00b0ff" stop-opacity="0.8" /><stop offset="1" stop-color="#00b0ff" stop-opacity="0" /></radialGradient><radialGradient cx="0.5" cy="0.5" id="purple_glow" r="0.5"><stop offset="0" stop-color="#d500f9" stop-opacity="0.8" /><stop offset="1" stop-color="#d500f9" stop-opacity="0" /></radialGradient><filter height="150%" id="drop_shadow" width="150%" x="0" y="0"><feGaussianBlur in="SourceAlpha" stdDeviation="4" /><feOffset dx="2" dy="4" in="SourceGraphic" /><feComponentTransfer in="blur"><feFuncA slope="0.2" type="linear" /></feComponentTransfer><feMerge><feMergeNode in="offset" /><feMergeNode in="SourceGraphic" /></feMerge></filter></defs><rect fill="url(#bg_grad)" height="100%" width="100%" x="0" y="0" /><text fill="#0d47a1" font-family="Arial, sans-serif" font-size="48" font-weight="bold" text-anchor="middle" x="600.0" y="80">ADDS System Architecture</text><text fill="#546e7a" font-family="Arial, sans-serif" font-size="24" text-anchor="middle" x="600.0" y="120">AI-Driven Drug Discovery System</text><rect fill="url(#glass_grad)" filter="url(#drop_shadow)" height="250" rx="20" ry="20" stroke="#0288d1" stroke-width="2" width="1000" x="100" y="180" /><text fill="#0288d1" font-family="Arial, sans-serif" font-size="28" font-weight="bold" x="140" y="220">Presentation Layer</text><text fill="#78909c" font-family="Arial, sans-serif" font-size="18" x="140" y="250">UI/UX &amp; API Gateway</text><rect fill="#29b6f6" height="140" rx="5" width="300" x="250" y="260" /><rect fill="#ffffff" height="120" width="280" x="260" y="270" /><text fill="#333" font-size="20" text-anchor="middle" x="400" y="330">Streamlit Dashboard</text><circle cx="750" cy="330" fill="#81d4fa" r="50" stroke="#0288d1" stroke-width="2" /><text fill="#01579b" font-size="18" text-anchor="middle" x="750" y="335">FastAPI</text><path d="M 600 430 L 600 480" marker-end="url(#arrow)" stroke="#b0bec5" stroke-width="4" /><rect fill="url(#glass_grad)" filter="url(#drop_shadow)" height="250" rx="20" ry="20" stroke="#7b1fa2" stroke-width="2" width="1000" x="100" y="480" /><text fill="#7b1fa2" font-family="Arial, sans-serif" font-size="28" font-weight="bold" x="140" y="520">Application Layer</text><text fill="#78909c" font-family="Arial, sans-serif" font-size="18" x="140" y="550">Workflow &amp; Optimization Logic</text><circle cx="350" cy="605" fill="none" r="40" stroke="#ab47bc" stroke-dasharray="10,5" stroke-width="8" /><text dy="5" fill="#4a148c" font-size="16" text-anchor="middle" x="350" y="605">Workflow</text><circle cx="430" cy="605" fill="none" r="40" stroke="#ab47bc" stroke-dasharray="10,5" stroke-width="8" /><rect fill="#e1bee7" height="70" rx="10" stroke="#7b1fa2" width="250" x="650" y="570" /><text dy="5" fill="#4a148c" font-size="20" text-anchor="middle" x="775" y="605">Search Optimizer</text><rect fill="#f3e5f5" height="40" rx="10" stroke="#7b1fa2" width="250" x="650" y="650" /><text fill="#4a148c" font-size="16" text-anchor="middle" x="775" y="675">Report Generator</text><path d="M 600 730 L 600 780" stroke="#b0bec5" stroke-width="4" /><rect fill="url(#glass_grad)" filter="url(#drop_shadow)" height="300" rx="20" ry="20" stroke="#2e7d32" stroke-width="2" width="1000" x="100" y="780" /><text fill="#2e7d32" font-family="Arial, sans-serif" font-size="28" font-weight="bold" x="140" y="820">AI Engine Layer (Core)</text><text fill="#78909c" font-family="Arial, sans-serif" font-size="18" x="140" y="850">Multi-Modal Intelligence Models</text><circle cx="300" cy="930" fill="url(#blue_glow)" r="60" /><text fill="#01579b" font-size="18" font-weight="bold" text-anchor="middle" x="300" y="935">Cellpose v2</text><text fill="#0277bd" font-size="14" text-anchor="middle" x="300" y="955">(Vision)</text><circle cx="600" cy="930" fill="url(#purple_glow)" r="70" /><text fill="#4a148c" font-size="20" font-weight="bold" text-anchor="middle" x="600" y="935">ESMFold</text><text fill="#6a1b9a" font-size="14" text-anchor="middle" x="600" y="955">(Structure)</text><rect fill="#c8e6c9" height="80" rx="10" stroke="#2e7d32" width="150" x="800" y="890" /><text fill="#1b5e20" font-size="18" font-weight="bold" text-anchor="middle" x="875" y="935">Fusion Model</text><line stroke="#81c784" stroke-dasharray="5,5" stroke-width="2" x1="360" x2="530" y1="930" y2="930" /><line stroke="#81c784" stroke-dasharray="5,5" stroke-width="2" x1="670" x2="800" y1="930" y2="930" /><path d="M 600 1080 L 600 1130" stroke="#b0bec5" stroke-width="4" /><rect fill="url(#glass_grad)" filter="url(#drop_shadow)" height="250" rx="20" ry="20" stroke="#455a64" stroke-width="2" width="1000" x="100" y="1130" /><text fill="#455a64" font-family="Arial, sans-serif" font-size="28" font-weight="bold" x="140" y="1170">Data Layer (Secure)</text><text fill="#78909c" font-family="Arial, sans-serif" font-size="18" x="140" y="1200">Local Storage &amp; Databases</text><ellipse cx="350" cy="1230" fill="#cfd8dc" rx="40" ry="15" stroke="#455a64" /><rect fill="#eceff1" height="60" stroke="#455a64" width="80" x="310" y="1230" /><line stroke="#455a64" x1="310" x2="310" y1="1230" y2="1290" /><line stroke="#455a64" x1="390" x2="390" y1="1230" y2="1290" /><path d="M 310 1290 A 40 15 0 0 0 390 1290" fill="#eceff1" stroke="#455a64" /><text fill="#37474f" font-size="14" text-anchor="middle" x="350" y="1270">Clinical DB</text><ellipse cx="600" cy="1230" fill="#cfd8dc" rx="40" ry="15" stroke="#455a64" /><rect fill="#eceff1" height="60" stroke="#455a64" width="80" x="560" y="1230" /><line stroke="#455a64" x1="560" x2="560" y1="1230" y2="1290" /><line stroke="#455a64" x1="640" x2="640" y1="1230" y2="1290" /><path d="M 560 1290 A 40 15 0 0 0 640 1290" fill="#eceff1" stroke="#455a64" /><text fill="#37474f" font-size="14" text-anchor="middle" x="600" y="1270">File Store</text><ellipse cx="850" cy="1230" fill="#cfd8dc" rx="40" ry="15" stroke="#455a64" /><rect fill="#eceff1" height="60" stroke="#455a64" width="80" x="810" y="1230" /><line stroke="#455a64" x1="810" x2="810" y1="1230" y2="1290" /><line stroke="#455a64" x1="890" x2="890" y1="1230" y2="1290" /><path d="M 810 1290 A 40 15 0 0 0 890 1290" fill="#eceff1" stroke="#455a64" /><text fill="#37474f" font-size="14" text-anchor="middle" x="850" y="1270">Vector DB</text><path d="M 1050 1310 L 1100 1360 L 1050 1360 Z" fill="#cfd8dc" /><text fill="#d32f2f" font-size="16" font-weight="bold" text-anchor="middle" x="600" y="1350">HIPAA Compliant</text></svg>