<?xml version="1.0" encoding="utf-8" ?>
<svg baseProfile="full" height="1080" version="1.1" viewBox="0 0 1920 1080" width="1920" xmlns="http://www.w3.org/2000/svg" xmlns:ev="http://www.w3.org/2001/xml-events" xmlns:xlink="http://www.w3.org/1999/xlink"><defs><linearGradient id="premium_bg" x1="0" x2="1" y1="0" y2="1"><stop offset="0" stop-color="#0a1929" stop-opacity="1" /><stop offset="0.5" stop-color="#1e3a5f" stop-opacity="1" /><stop offset="1" stop-color="#0a1929" stop-opacity="1" /></linearGradient><radialGradient cx="0.5" cy="0.5" id="gold_glow" r="0.5"><stop offset="0" stop-color="#ffd700" stop-opacity="1" /><stop offset="0.5" stop-color="#ffed4e" stop-opacity="0.8" /><stop offset="1" stop-color="#ff9800" stop-opacity="0.3" /></radialGradient><linearGradient id="cyan_tech" x1="0" x2="0" y1="0" y2="1"><stop offset="0" stop-color="#00e5ff" stop-opacity="1" /><stop offset="1" stop-color="#00b0ff" stop-opacity="1" /></linearGradient><linearGradient id="green_secure" x1="0" x2="0" y1="0" y2="1"><stop offset="0" stop-color="#00e676" stop-opacity="1" /><stop offset="1" stop-color="#00c853" stop-opacity="1" /></linearGradient><filter height="200%" id="premium_shadow" width="200%"><feGaussianBlur in="SourceAlpha" stdDeviation="8" /><feOffset dx="0" dy="6" in="SourceGraphic" result="offsetblur" /><feComponentTransfer in="SourceGraphic"><feFuncA slope="0.5" type="linear" /></feComponentTransfer><feMerge><feMergeNode in="offsetblur" /><feMergeNode in="SourceGraphic" /></feMerge></filter><filter height="300%" id="glow" width="300%"><feGaussianBlur in="SourceGraphic" result="coloredBlur" stdDeviation="4" /><feMerge><feMergeNode in="coloredBlur" /><feMergeNode in="SourceGraphic" /></feMerge></filter></defs><rect fill="url(#premium_bg)" height="100%" width="100%" x="0" y="0" /><line opacity="0.2" stroke="#1e3a5f" stroke-width="0.5" x1="0" x2="0" y1="0" y2="1080" /><line opacity="0.2" stroke="#1e3a5f" stroke-width="0.5" x1="50" x2="50" y1="0" y2="1080" /><line opacity="0.2" stroke="#1e3a5f" stroke-width="0.5" x1="100" x2="100" y1="0" y2="1080" /><line opacity="0.2" stroke="#1e3a5f" stroke-width="0.5" x1="150" x2="150" y1="0" y2="1080" /><line opacity="0.2" stroke="#1e3a5f" stroke-width="0.5" x1="200" x2="200" y1="0" y2="1080" /><line opacity="0.2" stroke="#1e3a5f" stroke-width="0.5" x1="250" x2="250" y1="0" y2="1080" /><line opacity="0.2" stroke="#1e3a5f" stroke-width="0.5" x1="300" x2="300" y1="0" y2="1080" /><line opacity="0.2" stroke="#1e3a5f" stroke-width="0.5" x1="350" x2="350" y1="0" y2="1080" /><line opacity="0.2" stroke="#1e3a5f" stroke-width="0.5" x1="400" x2="400" y1="0" y2="1080" /><line opacity="0.2" stroke="#1e3a5f" stroke-width="0.5" x1="450" x2="450" y1="0" y2="1080" /><line opacity="0.2" stroke="#1e3a5f" stroke-width="0.5" x1="500" x2="500" y1="0" y2="1080" /><line opacity="0.2" stroke="#1e3a5f" stroke-width="0.5" x1="550" x2="550" y1="0" y2="1080" /><line opacity="0.2" stroke="#1e3a5f" stroke-width="0.5" x1="600" x2="600" y1="0" y2="1080" /><line opacity="0.2" stroke="#1e3a5f" stroke-width="0.5" x1="650" x2="650" y1="0" y2="1080" /><line opacity="0.2" stroke="#1e3a5f" stroke-width="0.5" x1="700" x2="700" y1="0" y2="1080" /><line opacity="0.2" stroke="#1e3a5f" stroke-width="0.5" x1="750" x2="750" y1="0" y2="1080" /><line opacity="0.2" stroke="#1e3a5f" stroke-width="0.5" x1="800" x2="800" y1="0" y2="1080" /><line opacity="0.2" stroke="#1e3a5f" stroke-width="0.5" x1="850" x2="850" y1="0" y2="1080" /><line opacity="0.2" stroke="#1e3a5f" stroke-width="0.5" x1="900" x2="900" y1="0" y2="1080" /><line opacity="0.2" stroke="#1e3a5f" stroke-width="0.5" x1="950" x2="950" y1="0" y2="1080" /><line opacity="0.2" stroke="#1e3a5f" stroke-width="0.5" x1="1000" x2="1000" y1="0" y2="1080" /><line opacity="0.2" stroke="#1e3a5f" stroke-width="0.5" x1="1050" x2="1050" y1="0" y2="1080" /><line opacity="0.2" stroke="#1e3a5f" stroke-width="0.5" x1="1100" x2="1100" y1="0" y2="1080" /><line opacity="0.2" stroke="#1e3a5f" stroke-width="0.5" x1="1150" x2="1150" y1="0" y2="1080" /><line opacity="0.2" stroke="#1e3a5f" stroke-width="0.5" x1="1200" x2="1200" y1="0" y2="1080" /><line opacity="0.2" stroke="#1e3a5f" stroke-width="0.5" x1="1250" x2="1250" y1="0" y2="1080" /><line opacity="0.2" stroke="#1e3a5f" stroke-width="0.5" x1="1300" x2="1300" y1="0" y2="1080" /><line opacity="0.2" stroke="#1e3a5f" stroke-width="0.5" x1="1350" x2="1350" y1="0" y2="1080" /><line opacity="0.2" stroke="#1e3a5f" stroke-width="0.5" x1="1400" x2="1400" y1="0" y2="1080" /><line opacity="0.2" stroke="#1e3a5f" stroke-width="0.5" x1="1450" x2="1450" y1="0" y2="1080" /><line opacity="0.2" stroke="#1e3a5f" stroke-width="0.5" x1="1500" x2="1500" y1="0" y2="1080" /><line opacity="0.2" stroke="#1e3a5f" stroke-width="0.5" x1="1550" x2="1550" y1="0" y2="1080" /><line opacity="0.2" stroke="#1e3a5f" stroke-width="0.5" x1="1600" x2="1600" y1="0" y2="1080" /><line opacity="0.2" stroke="#1e3a5f" stroke-width="0.5" x1="1650" x2="1650" y1="0" y2="1080" /><line opacity="0.2" stroke="#1e3a5f" stroke-width="0.5" x1="1700" x2="1700" y1="0" y2="1080" /><line opacity="0.2" stroke="#1e3a5f" stroke-width="0.5" x1="1750" x2="1750" y1="0" y2="1080" /><line opacity="0.2" stroke="#1e3a5f" stroke-width="0.5" x1="1800" x2="1800" y1="0" y2="1080" /><line opacity="0.2" stroke="#1e3a5f" stroke-width="0.5" x1="1850" x2="1850" y1="0" y2="1080" /><line opacity="0.2" stroke="#1e3a5f" stroke-width="0.5" x1="1900" x2="1900" y1="0" y2="1080" /><line opacity="0.2" stroke="#1e3a5f" stroke-width="0.5" x1="0" x2="1920" y1="0" y2="0" /><line opacity="0.2" stroke="#1e3a5f" stroke-width="0.5" x1="0" x2="1920" y1="50" y2="50" /><line opacity="0.2" stroke="#1e3a5f" stroke-width="0.5" x1="0" x2="1920" y1="100" y2="100" /><line opacity="0.2" stroke="#1e3a5f" stroke-width="0.5" x1="0" x2="1920" y1="150" y2="150" /><line opacity="0.2" stroke="#1e3a5f" stroke-width="0.5" x1="0" x2="1920" y1="200" y2="200" /><line opacity="0.2" stroke="#1e3a5f" stroke-width="0.5" x1="0" x2="1920" y1="250" y2="250" /><line opacity="0.2" stroke="#1e3a5f" stroke-width="0.5" x1="0" x2="1920" y1="300" y2="300" /><line opacity="0.2" stroke="#1e3a5f" stroke-width="0.5" x1="0" x2="1920" y1="350" y2="350" /><line opacity="0.2" stroke="#1e3a5f" stroke-width="0.5" x1="0" x2="1920" y1="400" y2="400" /><line opacity="0.2" stroke="#1e3a5f" stroke-width="0.5" x1="0" x2="1920" y1="450" y2="450" /><line opacity="0.2" stroke="#1e3a5f" stroke-width="0.5" x1="0" x2="1920" y1="500" y2="500" /><line opacity="0.2" stroke="#1e3a5f" stroke-width="0.5" x1="0" x2="1920" y1="550" y2="550" /><line opacity="0.2" stroke="#1e3a5f" stroke-width="0.5" x1="0" x2="1920" y1="600" y2="600" /><line opacity="0.2" stroke="#1e3a5f" stroke-width="0.5" x1="0" x2="1920" y1="650" y2="650" /><line opacity="0.2" stroke="#1e3a5f" stroke-width="0.5" x1="0" x2="1920" y1="700" y2="700" /><line opacity="0.2" stroke="#1e3a5f" stroke-width="0.5" x1="0" x2="1920" y1="750" y2="750" /><line opacity="0.2" stroke="#1e3a5f" stroke-width="0.5" x1="0" x2="1920" y1="800" y2="800" /><line opacity="0.2" stroke="#1e3a5f" stroke-width="0.5" x1="0" x2="1920" y1="850" y2="850" /><line opacity="0.2" stroke="#1e3a5f" stroke-width="0.5" x1="0" x2="1920" y1="900" y2="900" /><line opacity="0.2" stroke="#1e3a5f" stroke-width="0.5" x1="0" x2="1920" y1="950" y2="950" /><line opacity="0.2" stroke="#1e3a5f" stroke-width="0.5" x1="0" x2="1920" y1="1000" y2="1000" /><line opacity="0.2" stroke="#1e3a5f" stroke-width="0.5" x1="0" x2="1920" y1="1050" y2="1050" /><rect fill="#000000" height="140" opacity="0.6" width="1920" x="0" y="0" /><g filter="url(#glow)"><text fill="url(#gold_glow)" font-family="Arial, sans-serif" font-size="56" font-weight="bold" text-anchor="middle" x="960.0" y="60">ADDS AI 핵심 차별성: 왜 우리만 가능한가?</text><text fill="#00e5ff" font-family="Arial, sans-serif" font-size="28" text-anchor="middle" x="960.0" y="110">Why Only ADDS AI? / Core Differentiation</text></g><rect fill="#b71c1c" height="60" opacity="0.8" rx="10" width="450" x="80" y="190" /><text fill="#ffffff" font-family="Arial, sans-serif" font-size="24" font-weight="bold" text-anchor="middle" x="305" y="220">타사/기존 방법의 근본적 한계</text><text fill="#ffcdd2" font-family="Arial, sans-serif" font-size="16" text-anchor="middle" x="305" y="245">Fundamental Limitation of Others</text><circle cx="150" cy="300" fill="#424242" r="35" stroke="#757575" stroke-width="3" /><text fill="#f44336" font-size="40" font-weight="bold" text-anchor="middle" x="150" y="315">X</text><text fill="#ffffff" font-size="20" font-weight="bold" x="220" y="295">정성적 육안 판단</text><text fill="#b0bec5" font-size="16" x="220" y="320">Qualitative Visual</text><circle cx="150" cy="420" fill="#424242" r="35" stroke="#757575" stroke-width="3" /><text fill="#f44336" font-size="40" font-weight="bold" text-anchor="middle" x="150" y="435">X</text><text fill="#ffffff" font-size="20" font-weight="bold" x="220" y="415">숫자 데이터 없음</text><text fill="#b0bec5" font-size="16" x="220" y="440">No Numerical Data</text><circle cx="150" cy="540" fill="#424242" r="35" stroke="#757575" stroke-width="3" /><text fill="#f44336" font-size="40" font-weight="bold" text-anchor="middle" x="150" y="555">X</text><text fill="#ffffff" font-size="20" font-weight="bold" x="220" y="535">AI 학습 불가능</text><text fill="#b0bec5" font-size="16" x="220" y="560">AI Impossible</text><rect fill="#d32f2f" height="30" stroke="#b71c1c" stroke-width="2" width="55" x="600" y="250" /><rect fill="#d32f2f" height="30" stroke="#b71c1c" stroke-width="2" width="55" x="660" y="250" /><rect fill="#d32f2f" height="30" stroke="#b71c1c" stroke-width="2" width="55" x="720" y="250" /><rect fill="#d32f2f" height="30" stroke="#b71c1c" stroke-width="2" width="55" x="630" y="285" /><rect fill="#d32f2f" height="30" stroke="#b71c1c" stroke-width="2" width="55" x="690" y="285" /><rect fill="#d32f2f" height="30" stroke="#b71c1c" stroke-width="2" width="55" x="750" y="285" /><rect fill="#d32f2f" height="30" stroke="#b71c1c" stroke-width="2" width="55" x="600" y="320" /><rect fill="#d32f2f" height="30" stroke="#b71c1c" stroke-width="2" width="55" x="660" y="320" /><rect fill="#d32f2f" height="30" stroke="#b71c1c" stroke-width="2" width="55" x="720" y="320" /><rect fill="#d32f2f" height="30" stroke="#b71c1c" stroke-width="2" width="55" x="630" y="355" /><rect fill="#d32f2f" height="30" stroke="#b71c1c" stroke-width="2" width="55" x="690" y="355" /><rect fill="#d32f2f" height="30" stroke="#b71c1c" stroke-width="2" width="55" x="750" y="355" /><rect fill="#d32f2f" height="30" stroke="#b71c1c" stroke-width="2" width="55" x="600" y="390" /><rect fill="#d32f2f" height="30" stroke="#b71c1c" stroke-width="2" width="55" x="660" y="390" /><rect fill="#d32f2f" height="30" stroke="#b71c1c" stroke-width="2" width="55" x="720" y="390" /><rect fill="#d32f2f" height="30" stroke="#b71c1c" stroke-width="2" width="55" x="630" y="425" /><rect fill="#d32f2f" height="30" stroke="#b71c1c" stroke-width="2" width="55" x="690" y="425" /><rect fill="#d32f2f" height="30" stroke="#b71c1c" stroke-width="2" width="55" x="750" y="425" /><rect fill="#d32f2f" height="30" stroke="#b71c1c" stroke-width="2" width="55" x="600" y="460" /><rect fill="#d32f2f" height="30" stroke="#b71c1c" stroke-width="2" width="55" x="660" y="460" /><rect fill="#d32f2f" height="30" stroke="#b71c1c" stroke-width="2" width="55" x="720" y="460" /><rect fill="#d32f2f" height="30" stroke="#b71c1c" stroke-width="2" width="55" x="630" y="495" /><rect fill="#d32f2f" height="30" stroke="#b71c1c" stroke-width="2" width="55" x="690" y="495" /><rect fill="#d32f2f" height="30" stroke="#b71c1c" stroke-width="2" width="55" x="750" y="495" /><rect fill="#d32f2f" height="30" stroke="#b71c1c" stroke-width="2" width="55" x="600" y="530" /><rect fill="#d32f2f" height="30" stroke="#b71c1c" stroke-width="2" width="55" x="660" y="530" /><rect fill="#d32f2f" height="30" stroke="#b71c1c" stroke-width="2" width="55" x="720" y="530" /><rect fill="#d32f2f" height="30" stroke="#b71c1c" stroke-width="2" width="55" x="630" y="565" /><rect fill="#d32f2f" height="30" stroke="#b71c1c" stroke-width="2" width="55" x="690" y="565" /><rect fill="#d32f2f" height="30" stroke="#b71c1c" stroke-width="2" width="55" x="750" y="565" /><polygon fill="#ff1744" filter="url(#premium_shadow)" points="690,170 770,190 790,230 790,310 770,350 690,370 610,350 590,310 590,230 610,190" stroke="#ffffff" stroke-width="4" /><text fill="#ffffff" font-size="48" font-weight="bold" text-anchor="middle" x="690" y="280">STOP</text><text fill="#ffffff" font-size="20" text-anchor="middle" x="690" y="315">AI 학습</text><text fill="#ffffff" font-size="20" text-anchor="middle" x="690" y="335">불가능</text><g filter="url(#glow)"><circle cx="850" cy="400" fill="url(#gold_glow)" r="50" stroke="#ff9800" stroke-width="3" /><circle cx="850" cy="400" fill="none" r="25" stroke="#ffd700" stroke-width="2" /><rect fill="url(#gold_glow)" height="30" rx="5" width="180" x="890" y="385" /><rect fill="#ffd700" height="30" width="15" x="1010" y="405" /><rect fill="#ffd700" height="30" width="15" x="1030" y="405" /><rect fill="#ffd700" height="30" width="15" x="1050" y="405" /></g><circle cx="970" cy="280" fill="url(#gold_glow)" filter="url(#premium_shadow)" r="70" stroke="#ff9800" stroke-width="4" /><text fill="#1a237e" font-size="24" font-weight="bold" text-anchor="middle" x="970" y="265">Only</text><text fill="#1a237e" font-size="32" font-weight="bold" text-anchor="middle" x="970" y="295">ADDS</text><line opacity="0.7" stroke="#ffeb3b" stroke-width="3" x1="840.0" x2="920.0" y1="270.0" y2="270.0" /><line opacity="0.7" stroke="#ffeb3b" stroke-width="3" x1="825.3553390593274" x2="881.9238815542512" y1="305.3553390593274" y2="361.9238815542512" /><line opacity="0.7" stroke="#ffeb3b" stroke-width="3" x1="790.0" x2="790.0" y1="320.0" y2="400.0" /><line opacity="0.7" stroke="#ffeb3b" stroke-width="3" x1="754.6446609406727" x2="698.0761184457489" y1="305.3553390593274" y2="361.9238815542512" /><line opacity="0.7" stroke="#ffeb3b" stroke-width="3" x1="740.0" x2="660.0" y1="270.0" y2="270.0" /><line opacity="0.7" stroke="#ffeb3b" stroke-width="3" x1="754.6446609406726" x2="698.0761184457488" y1="234.64466094067262" y2="178.07611844574882" /><line opacity="0.7" stroke="#ffeb3b" stroke-width="3" x1="790.0" x2="790.0" y1="220.0" y2="140.0" /><line opacity="0.7" stroke="#ffeb3b" stroke-width="3" x1="825.3553390593273" x2="881.9238815542511" y1="234.64466094067262" y2="178.07611844574882" /><rect fill="#0277bd" height="60" opacity="0.8" rx="10" width="650" x="1130" y="190" /><text fill="#ffffff" font-family="Arial, sans-serif" font-size="24" font-weight="bold" text-anchor="middle" x="1455" y="235">ADDS의 독창적 해법 / MI-ADDS Unique Solution</text><rect fill="#1a237e" filter="url(#premium_shadow)" height="380" opacity="0.4" rx="15" stroke="url(#cyan_tech)" stroke-width="3" width="220" x="1140" y="300" /><circle cx="1250" cy="360" fill="url(#cyan_tech)" filter="url(#glow)" r="45" /><text fill="#ffffff" font-size="22" font-weight="bold" text-anchor="middle" x="1250" y="440">AI Engine</text><text fill="#ffffff" font-size="22" font-weight="bold" text-anchor="middle" x="1250" y="465">Core</text><text fill="#00e5ff" font-size="18" text-anchor="middle" x="1250" y="500">세계 최초 엑소좀</text><text fill="#00e5ff" font-size="18" text-anchor="middle" x="1250" y="522">정량화</text><text fill="#b0bec5" font-size="14" x="1165" y="560">• Cellpose 기술 독점</text><text fill="#b0bec5" font-size="14" x="1165" y="588">• 20차원 수치 벡터</text><text fill="#b0bec5" font-size="14" x="1165" y="616">• 특허 가능 기술</text><rect fill="#1a237e" filter="url(#premium_shadow)" height="380" opacity="0.4" rx="15" stroke="url(#green_secure)" stroke-width="3" width="220" x="1380" y="300" /><circle cx="1490" cy="360" fill="url(#green_secure)" filter="url(#glow)" r="45" /><text fill="#ffffff" font-size="22" font-weight="bold" text-anchor="middle" x="1490" y="440">Local Privacy</text><text fill="#ffffff" font-size="22" font-weight="bold" text-anchor="middle" x="1490" y="465">HIPAA</text><text fill="#00e5ff" font-size="18" text-anchor="middle" x="1490" y="500">완벽한</text><text fill="#00e5ff" font-size="18" text-anchor="middle" x="1490" y="522">개인정보 보호</text><text fill="#b0bec5" font-size="14" x="1405" y="560">• 로컬 실행 100%</text><text fill="#b0bec5" font-size="14" x="1405" y="588">• 데이터 외부 유출 0</text><text fill="#b0bec5" font-size="14" x="1405" y="616">• 의료 등급 보안</text><rect fill="#1a237e" filter="url(#premium_shadow)" height="380" opacity="0.4" rx="15" stroke="#ff6f00" stroke-width="3" width="220" x="1620" y="300" /><circle cx="1730" cy="360" fill="#ff6f00" filter="url(#glow)" r="45" /><text fill="#ffffff" font-size="22" font-weight="bold" text-anchor="middle" x="1730" y="440">Real-Time</text><text fill="#ffffff" font-size="22" font-weight="bold" text-anchor="middle" x="1730" y="465">0.6초</text><text fill="#00e5ff" font-size="18" text-anchor="middle" x="1730" y="500">실시간</text><text fill="#00e5ff" font-size="18" text-anchor="middle" x="1730" y="522">추론 속도</text><text fill="#b0bec5" font-size="14" x="1645" y="560">• TensorRT 최적화</text><text fill="#b0bec5" font-size="14" x="1645" y="588">• Mixed Precision</text><text fill="#b0bec5" font-size="14" x="1645" y="616">• GPU 가속</text><polygon fill="#1e88e5" filter="url(#premium_shadow)" points="350,830 450,880 350,930 250,880" stroke="#ffffff" stroke-width="3" /><text fill="#ffffff" font-size="16" font-weight="bold" text-anchor="middle" x="350" y="875">Diamond 1</text><text fill="#ffffff" font-size="14" text-anchor="middle" x="350" y="895">기술적 독창성</text><text fill="#1e88e5" font-size="18" font-weight="bold" text-anchor="middle" x="350" y="955">Technical Uniqueness</text><polygon fill="#43a047" filter="url(#premium_shadow)" points="800,830 900,880 800,930 700,880" stroke="#ffffff" stroke-width="3" /><text fill="#ffffff" font-size="16" font-weight="bold" text-anchor="middle" x="800" y="875">Diamond 2</text><text fill="#ffffff" font-size="14" text-anchor="middle" x="800" y="895">데이터 장벽</text><text fill="#43a047" font-size="18" font-weight="bold" text-anchor="middle" x="800" y="955">Data Barrier</text><polygon fill="#fb8c00" filter="url(#premium_shadow)" points="1250,830 1350,880 1250,930 1150,880" stroke="#ffffff" stroke-width="3" /><text fill="#ffffff" font-size="16" font-weight="bold" text-anchor="middle" x="1250" y="875">Diamond 3</text><text fill="#ffffff" font-size="14" text-anchor="middle" x="1250" y="895">선점 효과</text><text fill="#fb8c00" font-size="18" font-weight="bold" text-anchor="middle" x="1250" y="955">First-Mover</text><text fill="url(#gold_glow)" filter="url(#glow)" font-size="28" font-weight="bold" text-anchor="middle" x="960.0" y="1020">차별성의 핵심: Cellpose 정량화 = AI 기능 / Core Differentiation: Cellpose Quantification = AI Enabled</text><text fill="#90caf9" font-size="20" text-anchor="middle" x="960.0" y="1055">타사는 데이터가 없어 시작조차 불가 / Competitors Cannot Even Start Without Quantified Data</text></svg>